<?xml version="1.0" encoding="UTF-8" standalone="no"?>
<!-- Created with Inkscape (http://www.inkscape.org/) -->

<svg
   xmlns:dc="http://purl.org/dc/elements/1.1/"
   xmlns:cc="http://creativecommons.org/ns#"
   xmlns:rdf="http://www.w3.org/1999/02/22-rdf-syntax-ns#"
   xmlns:svg="http://www.w3.org/2000/svg"
   xmlns="http://www.w3.org/2000/svg"
   xmlns:sodipodi="http://sodipodi.sourceforge.net/DTD/sodipodi-0.dtd"
   xmlns:inkscape="http://www.inkscape.org/namespaces/inkscape"
   width="210mm"
   height="297mm"
   viewBox="0 0 744.09448819 1052.3622047"
   id="svg4435"
   version="1.1"
   inkscape:version="0.91 r13725"
   sodipodi:docname="icons.svg">
  <defs
     id="defs4437" />
  <sodipodi:namedview
     id="base"
     pagecolor="#eaeaea"
     bordercolor="#ff7171"
     borderopacity="1"
     inkscape:pageopacity="0"
     inkscape:pageshadow="2"
     inkscape:zoom="1.4"
     inkscape:cx="340.09869"
     inkscape:cy="677.28742"
     inkscape:document-units="px"
     inkscape:current-layer="g3416"
     showgrid="false"
     inkscape:window-width="1333"
     inkscape:window-height="744"
     inkscape:window-x="33"
     inkscape:window-y="24"
     inkscape:window-maximized="1"
     borderlayer="true" />
  <metadata
     id="metadata4440">
    <rdf:RDF>
      <cc:Work
         rdf:about="">
        <dc:format>image/svg+xml</dc:format>
        <dc:type
           rdf:resource="http://purl.org/dc/dcmitype/StillImage" />
        <dc:title />
      </cc:Work>
    </rdf:RDF>
  </metadata>
  <g
     inkscape:label="Layer 1"
     inkscape:groupmode="layer"
     id="layer1" />
  <g
     inkscape:groupmode="layer"
     id="layer2"
     inkscape:label="Layer 2">
    <text
       xml:space="preserve"
       style="font-style:normal;font-variant:normal;font-weight:bold;font-stretch:normal;font-size:27.5px;font-family:Roboto;-inkscape-font-specification:'Roboto Bold';text-align:start;text-anchor:start;opacity:1;fill:#221f3a;fill-opacity:1;stroke:none;stroke-width:1.14999998;stroke-miterlimit:4;stroke-dasharray:none;stroke-dashoffset:0;stroke-opacity:1"
       x="51.42857"
       y="578.07648"
       id="text3341"><tspan
         sodipodi:role="line"
         id="tspan3343"
         x="51.42857"
         y="578.07648">About</tspan><tspan
         sodipodi:role="line"
         x="51.42857"
         y="612.45148"
         id="tspan3369">Movin v1.0.0</tspan><tspan
         sodipodi:role="line"
         x="51.42857"
         y="646.82648"
         id="tspan3367">Developer: Ardiansyah Putra</tspan><tspan
         sodipodi:role="line"
         x="51.42857"
         y="681.20148"
         id="tspan3347">Contact: putraxor@gmail.com</tspan><tspan
         sodipodi:role="line"
         x="51.42857"
         y="715.57648"
         id="tspan3349">Twitter: putraxor</tspan><tspan
         sodipodi:role="line"
         x="51.42857"
         y="749.95148"
         id="tspan3351">From: Medan, North Sumatera, Indonesia</tspan><tspan
         sodipodi:role="line"
         x="51.42857"
         y="784.32648"
         id="tspan3353" /><tspan
         sodipodi:role="line"
         x="51.42857"
         y="818.70148"
         id="tspan3359">Thanks</tspan><tspan
         sodipodi:role="line"
         x="51.42857"
         y="853.07648"
         id="tspan3363">Indonesia Android Kejar Batch 3</tspan><tspan
         sodipodi:role="line"
         x="51.42857"
         y="887.45148"
         id="tspan3365">Dimas Maulana and all friends from IAK partisipants.</tspan><tspan
         sodipodi:role="line"
         x="51.42857"
         y="921.82648"
         id="tspan3361" /><tspan
         sodipodi:role="line"
         x="51.42857"
         y="956.20148"
         id="tspan3355">Credit</tspan><tspan
         sodipodi:role="line"
         x="51.42857"
         y="990.57648"
         id="tspan3357">Icons originally designed by Freepik</tspan></text>
    <path
       inkscape:connector-curvature="0"
       id="ic_patrick_yellow"
       style="fill:#f8e937;fill-opacity:1;fill-rule:nonzero;stroke:none"
       d="m 212.90551,374.88225 -14.83301,-8.19925 -14.83301,8.19925 2.83266,-17.36654 -11.99896,-12.29887 16.5828,-2.53384 7.41651,-15.80075 7.4165,15.80075 16.58419,2.53384 -12.00035,12.29887 2.83267,17.36654"
       inkscape:label="#path734" />
    <g
       id="ic_popcorn"
       transform="translate(-172.14255,-57.956864)"
       inkscape:label="#g4198">
      <g
         id="g3416"
         transform="translate(-11.428571,-5.3571428)">
        <rect
           style="opacity:0.00100002;fill:#221f3a;fill-opacity:1;stroke:none;stroke-width:1.14999998;stroke-miterlimit:4;stroke-dasharray:none;stroke-dashoffset:0;stroke-opacity:1"
           id="rect3357"
           width="96"
           height="96"
           x="284.86301"
           y="291.68182" />
        <g
           id="g3361"
           transform="matrix(0.38375519,0,0,0.38375519,244.05109,247.22229)">
          <path
             d="m 193.41674,199.78345 c -20.03875,-8.79 -17.165,-29.9475 -10.0025,-36.25 14.24875,-12.54 26.8775,1.25 31.2525,10 5,-13.125 10,-28.125 26.875,-26.25 16.25,1.875 17.5,9.375 19.375,22.5 2.05625,-22.54 53.70125,-15.97125 29.08,20.945"
             style="fill:#f3bf2a;fill-opacity:1;fill-rule:nonzero;stroke:none"
             id="path634"
             inkscape:connector-curvature="0" />
          <path
             d="m 172.79174,207.28345 c -13.125,-4.375 -10.625,-24.375 0,-29.375 9.375,-3.75 24.87125,-3.75 30,8.125 1.875,-11.25 1.875,-25.625 16.875,-26.25 14.375,-0.625 15.625,11.25 16.25,22.5 4.74875,-12.38375 19.375,-13.75 20,1.25 4.375,-14.375 19.21625,-20.1125 33.75,-12.5 13.125,6.875 12.5,38.125 -2.5,36.25"
             style="fill:#f6df7f;fill-opacity:1;fill-rule:evenodd;stroke:none"
             id="path636"
             inkscape:connector-curvature="0" />
          <path
             d="m 272.61174,334.74344 -82.64875,0 -20.56875,-128.74999 122.5,0 -19.2825,128.74999"
             style="fill:#f14865;fill-opacity:1;fill-rule:evenodd;stroke:none"
             id="path638"
             inkscape:connector-curvature="0" />
          <path
             d="m 238.31424,319.06458 c 0,2.4187 -2.7975,4.38011 -6.25,4.38011 l -2.84125,0 c -3.4525,0 -6.25,-1.96141 -6.25,-4.38011 l 0,-71.23978 c 0,-2.41957 2.7975,-4.38011 6.25,-4.38011 l 2.84125,0 c 3.4525,0 6.25,1.96054 6.25,4.38011 l 0,71.23978"
             style="fill:#ffffff;fill-opacity:1;fill-rule:evenodd;stroke:none"
             id="path640"
             inkscape:connector-curvature="0" />
          <path
             d="m 212.81424,319.63219 c 0.48125,3.4175 -1.9,6.57875 -5.32,7.06 l -2.8125,0.395 c -3.42,0.48 -6.58,-1.9025 -7.0575,-5.32 L 183.47549,221.10345 c -0.48125,-3.41875 1.9,-6.57875 5.32,-7.05875 l 2.8125,-0.395 c 3.42,-0.48125 6.58,1.9 7.05875,5.31875 l 14.1475,100.66374"
             style="fill:#ffffff;fill-opacity:1;fill-rule:evenodd;stroke:none"
             id="path642"
             inkscape:connector-curvature="0" />
          <path
             d="m 277.81424,221.1022 c 0.48125,-3.41875 -1.9,-6.57875 -5.32,-7.06 l -2.8125,-0.395 c -3.42,-0.48 -6.58,1.90125 -7.0575,5.32 l -14.14875,100.66374 c -0.48125,3.4175 1.9,6.57875 5.32,7.05875 l 2.8125,0.395 c 3.42,0.48125 6.58,-1.90125 7.05875,-5.31875 l 14.1475,-100.66374"
             style="fill:#ffffff;fill-opacity:1;fill-rule:evenodd;stroke:none"
             id="path644"
             inkscape:connector-curvature="0" />
          <path
             d="m 233.95715,259.18571 c 1.2827,1.2827 0.34478,4.30104 -2.09651,6.74233 l -2.00907,2.00907 c -2.44129,2.44129 -5.45962,3.37921 -6.74234,2.09649 l -37.78058,-37.78059 c -1.28316,-1.28315 -0.34476,-4.30102 2.09652,-6.74231 l 2.00907,-2.00906 c 2.44129,-2.44129 5.45914,-3.37969 6.74232,-2.09651 l 37.78059,37.78058"
             style="fill:#ffffff;fill-opacity:1;fill-rule:evenodd;stroke:none"
             id="path640-6"
             inkscape:connector-curvature="0" />
          <path
             d="m 275.74292,232.46718 c 1.2827,-1.2827 0.34478,-4.30104 -2.09651,-6.74233 l -2.00907,-2.00907 c -2.44129,-2.44129 -5.45962,-3.37921 -6.74234,-2.09649 l -37.78058,37.78059 c -1.28316,1.28315 -0.34476,4.30102 2.09652,6.74231 l 2.00907,2.00906 c 2.44129,2.44129 5.45914,3.37969 6.74232,2.09651 l 37.78059,-37.78058"
             style="fill:#ffffff;fill-opacity:1;fill-rule:evenodd;stroke:none"
             id="path640-6-7"
             inkscape:connector-curvature="0" />
        </g>
        <g
           id="popcorn"
           transform="matrix(1.0233472,0,0,1.0233472,368.52648,183.40317)"
           inkscape:label="#g3361-3">
          <path
             d="m 193.41674,199.78345 c -20.03875,-8.79 -17.165,-29.9475 -10.0025,-36.25 14.24875,-12.54 26.8775,1.25 31.2525,10 5,-13.125 10,-28.125 26.875,-26.25 16.25,1.875 17.5,9.375 19.375,22.5 2.05625,-22.54 53.70125,-15.97125 29.08,20.945"
             style="fill:#f3bf2a;fill-opacity:1;fill-rule:nonzero;stroke:none"
             id="path634-6"
             inkscape:connector-curvature="0" />
          <path
             d="m 172.79174,207.28345 c -13.125,-4.375 -10.625,-24.375 0,-29.375 9.375,-3.75 24.87125,-3.75 30,8.125 1.875,-11.25 1.875,-25.625 16.875,-26.25 14.375,-0.625 15.625,11.25 16.25,22.5 4.74875,-12.38375 19.375,-13.75 20,1.25 4.375,-14.375 19.21625,-20.1125 33.75,-12.5 13.125,6.875 12.5,38.125 -2.5,36.25"
             style="fill:#f6df7f;fill-opacity:1;fill-rule:evenodd;stroke:none"
             id="path636-7"
             inkscape:connector-curvature="0" />
          <path
             d="m 272.61174,334.74344 -82.64875,0 -20.56875,-128.74999 122.5,0 -19.2825,128.74999"
             style="fill:#f14865;fill-opacity:1;fill-rule:evenodd;stroke:none"
             id="path638-5"
             inkscape:connector-curvature="0" />
          <path
             d="m 238.31424,319.06458 c 0,2.4187 -2.7975,4.38011 -6.25,4.38011 l -2.84125,0 c -3.4525,0 -6.25,-1.96141 -6.25,-4.38011 l 0,-71.23978 c 0,-2.41957 2.7975,-4.38011 6.25,-4.38011 l 2.84125,0 c 3.4525,0 6.25,1.96054 6.25,4.38011 l 0,71.23978"
             style="fill:#ffffff;fill-opacity:1;fill-rule:evenodd;stroke:none"
             id="path640-3"
             inkscape:connector-curvature="0" />
          <path
             d="m 212.81424,319.63219 c 0.48125,3.4175 -1.9,6.57875 -5.32,7.06 l -2.8125,0.395 c -3.42,0.48 -6.58,-1.9025 -7.0575,-5.32 L 183.47549,221.10345 c -0.48125,-3.41875 1.9,-6.57875 5.32,-7.05875 l 2.8125,-0.395 c 3.42,-0.48125 6.58,1.9 7.05875,5.31875 l 14.1475,100.66374"
             style="fill:#ffffff;fill-opacity:1;fill-rule:evenodd;stroke:none"
             id="path642-5"
             inkscape:connector-curvature="0" />
          <path
             d="m 277.81424,221.1022 c 0.48125,-3.41875 -1.9,-6.57875 -5.32,-7.06 l -2.8125,-0.395 c -3.42,-0.48 -6.58,1.90125 -7.0575,5.32 l -14.14875,100.66374 c -0.48125,3.4175 1.9,6.57875 5.32,7.05875 l 2.8125,0.395 c 3.42,0.48125 6.58,-1.90125 7.05875,-5.31875 l 14.1475,-100.66374"
             style="fill:#ffffff;fill-opacity:1;fill-rule:evenodd;stroke:none"
             id="path644-6"
             inkscape:connector-curvature="0" />
          <path
             d="m 233.95715,259.18571 c 1.2827,1.2827 0.34478,4.30104 -2.09651,6.74233 l -2.00907,2.00907 c -2.44129,2.44129 -5.45962,3.37921 -6.74234,2.09649 l -37.78058,-37.78059 c -1.28316,-1.28315 -0.34476,-4.30102 2.09652,-6.74231 l 2.00907,-2.00906 c 2.44129,-2.44129 5.45914,-3.37969 6.74232,-2.09651 l 37.78059,37.78058"
             style="fill:#ffffff;fill-opacity:1;fill-rule:evenodd;stroke:none"
             id="path640-6-2"
             inkscape:connector-curvature="0" />
          <path
             d="m 275.74292,232.46718 c 1.2827,-1.2827 0.34478,-4.30104 -2.09651,-6.74233 l -2.00907,-2.00907 c -2.44129,-2.44129 -5.45962,-3.37921 -6.74234,-2.09649 l -37.78058,37.78059 c -1.28316,1.28315 -0.34476,4.30102 2.09652,6.74231 l 2.00907,2.00906 c 2.44129,2.44129 5.45914,3.37969 6.74232,2.09651 l 37.78059,-37.78058"
             style="fill:#ffffff;fill-opacity:1;fill-rule:evenodd;stroke:none"
             id="path640-6-7-9"
             inkscape:connector-curvature="0" />
        </g>
      </g>
    </g>
    <path
       inkscape:connector-curvature="0"
       id="ic_patrick_yellow-3"
       style="fill:#f8e937;fill-opacity:1;fill-rule:nonzero;stroke:none"
       d="m 261.97518,292.43364 -14.83301,-8.19925 -14.83301,8.19925 2.83266,-17.36654 -11.99896,-12.29887 16.5828,-2.53384 7.41651,-15.80075 7.4165,15.80075 16.58419,2.53384 -12.00035,12.29887 2.83267,17.36654"
       inkscape:label="#path734" />
  </g>
</svg>
